<svg width="26" height="26" xmlns="http://www.w3.org/2000/svg">

 <g>
  <title>background</title>
  <rect fill="none" id="canvas_background" height="402" width="582" y="-1" x="-1"/>
 </g>
 <g>
  <title>Layer 1</title>
  <path stroke="null" id="svg_2" fill="#000000" d="m12.999424,1.052651c-6.587319,0 -11.946773,5.359454 -11.946773,11.947925c0,2.973425 1.098982,5.690355 2.902988,7.783417l1.260368,1.260368c2.093062,1.804006 4.809992,2.902988 7.783417,2.902988c6.588471,0 11.947925,-5.359454 11.947925,-11.946773c0,-6.588471 -5.359454,-11.947925 -11.947925,-11.947925zm0,22.112083c-5.604326,0 -10.164158,-4.559832 -10.164158,-10.164158c0,-5.60549 4.559832,-10.000576 10.164158,-10.000576c5.60549,0 10.16531,4.395086 10.16531,10.000576c0,5.604326 -4.55982,10.164158 -10.16531,10.164158z"/>
  <path stroke="null" id="svg_3" fill="#000000" d="m17.97382,12.067409l-4.041229,0l0,-4.041229c0,-0.514865 -0.417726,-0.932591 -0.932591,-0.932591s-0.932591,0.417726 -0.932591,0.932591l0,4.041229l-4.041229,0c-0.514865,0 -0.932591,0.417726 -0.932591,0.932591s0.417726,0.932591 0.932591,0.932591l4.041229,0l0,4.041229c0,0.514865 0.417726,0.932591 0.932591,0.932591s0.932591,-0.417726 0.932591,-0.932591l0,-4.041229l4.041229,0c0.514865,0 0.932591,-0.417726 0.932591,-0.932591s-0.417726,-0.932591 -0.932591,-0.932591z"/>
 </g>
</svg>