<svg width="30" height="30" xmlns="http://www.w3.org/2000/svg">

 <g>
  <title>background</title>
  <rect fill="none" id="canvas_background" height="402" width="582" y="-1" x="-1"/>
 </g>
 <g>
  <title>Layer 1</title>
  <circle id="svg_1" r="2" cy="24" cx="26"/>
  <path id="svg_2" d="m17,5c0,1.105 -0.895,1 -2,1s-2,0.105 -2,-1s0.895,-2 2,-2s2,0.895 2,2z"/>
  <circle id="svg_3" r="2" cy="24" cx="4"/>
  <path id="svg_4" d="m16.836,4.21l-1.836,-0.21l-1.836,0.21l-10.864,18.738l1.844,3.052l10.856,0l10.856,0l1.844,-3.052l-10.864,-18.738zm-0.624,7.15l-0.2,6.473l-2.024,0l-0.2,-6.473l2.424,0zm-1.209,10.829c-0.828,0 -1.323,-0.441 -1.323,-1.182c0,-0.755 0.494,-1.196 1.323,-1.196c0.822,0 1.316,0.441 1.316,1.196c0,0.741 -0.494,1.182 -1.316,1.182z"/>
 </g>
</svg>