<svg width="550" height="550" xmlns="http://www.w3.org/2000/svg">

 <g>
  <title>background</title>
  <rect fill="none" id="canvas_background" height="552" width="552" y="-1" x="-1"/>
 </g>
 <g>
  <title>Layer 1</title>
  <path id="svg_1" d="m275,531c-141.375,0 -256,-114.609 -256,-256c0,-141.375 114.625,-256 256,-256s256,114.625 256,256c0,141.391 -114.625,256 -256,256zm0,-448c-106.031,0 -192,85.969 -192,192s85.969,192 192,192c106.03,0 192,-85.969 192,-192s-85.969,-192 -192,-192zm-32,256l64,0l0,64l-64,0l0,-64zm0,-192l64,0l0,160l-64,0l0,-160z"/>
 </g>
</svg>